<svg xmlns="http://www.w3.org/2000/svg" viewBox="0 0 481 391.18" class="w-full mb-10 lg:mb-0 xl:mb-0 px-12 mb-10 sm:px-32 md:px-48 lg:px-10 xl:px-14 hero-padding">
  <path className="fill-current text-nord-5 dark:text-nord-4" fill="#e8ebf5" d="M458.9 109.38L291.57 9.99a22.44 22.44 0 00-22.93 0L5 166a10.45 10.45 0 000 17.87l163.61 97.19a26.69 26.69 0 0027.26 0l263-155.68a9.38 9.38 0 00.03-16z" />
  <path className="fill-current text-nord-9" fill="#a7bcce" d="M458.88 125.41l-263 155.68a26.69 26.69 0 01-27.26 0L5 183.87a10.26 10.26 0 01-5-8.89v13a10.23 10.23 0 005 8.72l163.61 97.18a26.67 26.67 0 0027.26 0l263-155.69a9.2 9.2 0 004.51-8.07v-12.69a9.25 9.25 0 01-4.5 7.98z" />
  <path className="fill-current text-nord-9" fill="#bbcee1" d="M458.88 125.41l-263 155.68a26.75 26.75 0 01-12.45 3.65v12.89a26.75 26.75 0 0012.45-3.65l263-155.69a9.2 9.2 0 004.51-8.07v-12.79a9.25 9.25 0 01-4.51 7.98z" />
  <path className="fill-current text-nord-15" fill="#b48ead" d="M291.59 70.68L359.63 111.18 403 84.82 334.96 44.33 291.59 70.68z" />
  <path className="fill-current text-nord-14" fill="#a3be8c" d="M283.45 70.68L351.5 111.18 394.86 84.82 326.82 44.33 283.45 70.68z" />
  <path className="fill-current text-nord-13" fill="#ebcb8b" d="M273.51 70.68L341.55 111.18 384.92 84.82 316.88 44.33 273.51 70.68z" />
  <path className="fill-current text-nord-12" fill="#d08770" d="M24.46 173.68L92.51 214.18 135.88 187.82 67.84 147.33 24.46 173.68z" />
  <path className="fill-current text-nord-11" fill="#bf616a" d="M24.42 165.68L92.47 206.18 135.84 179.82 67.8 139.33 24.42 165.68z" />
  <path className="fill-current text-nord-4" fill="#d8dee9" d="M345.81 141.53l-71.65-42.35a6.27 6.27 0 00-6.41 0l-104 61.43a2.92 2.92 0 000 5l70.62 41.76a7.42 7.42 0 007.61 0l103.83-61.33a2.61 2.61 0 000-4.51z" />
  <path className="fill-current text-nord-9" fill="#bbcee1" d="M345.81 146L242 207.33a7.42 7.42 0 01-7.61 0l-70.62-41.76a2.86 2.86 0 01-1.4-2.48v5.16a2.87 2.87 0 001.4 2.44l70.62 41.76a7.44 7.44 0 007.61 0l103.83-61.33a2.6 2.6 0 001.26-2.26v-5.08a2.55 2.55 0 01-1.28 2.22z" />
  <path className="fill-current text-white" fill="#fff" d="M159.46 63.18L266 .27a2 2 0 012.11.08l2.72 1.55-2.15 3-.8.94v87a3.61 3.61 0 01-1.74 3.09L164.9 155.64l-.16.89-3.22 4.65-3-1.79a1.61 1.61 0 01-.76-1.39V66.4a3.71 3.71 0 011.7-3.22z" />
  <path className="fill-current text-nord-9" fill="#bbcee1" d="M162.48 64.92l106.74-63a1.56 1.56 0 012.34 1.39v91.71a3.59 3.59 0 01-1.74 3.09l-106.74 63.07a1.6 1.6 0 01-2.4-1.42v-91.6a3.68 3.68 0 011.8-3.24z" />
  <path className="fill-current text-nord-10 dark:text-nord-3" fill="#81a1c1" d="M164.15 70.46L268.97 8.2 268.97 90.07 164.14 152.16 164.15 70.46z" />
  <path className="fill-current text-nord-3" fill="#4c566a" d="M276.38 109.55L271.11 106.41 265.11 109.95 270.37 113.07 276.38 109.55z" />
  <path className="fill-current text-nord-3" fill="#4c566a" d="M268.9 113.95L263.63 110.82 257.63 114.36 262.89 117.48 268.9 113.95z" />
  <path className="fill-current text-nord-3" fill="#4c566a" d="M261.43 118.36L256.15 115.22 250.16 118.76 255.41 121.88 261.43 118.36z" />
  <path className="fill-current text-nord-3" fill="#4c566a" d="M253.95 122.76L248.67 119.63 242.68 123.17 247.94 126.29 253.95 122.76z" />
  <path className="fill-current text-nord-3" fill="#4c566a" d="M246.47 127.16L241.2 124.03 235.2 127.57 240.46 130.69 246.47 127.16z" />
  <path className="fill-current text-nord-3" fill="#4c566a" d="M238.99 131.57L233.72 128.44 227.72 131.97 232.98 135.1 238.99 131.57z" />
  <path className="fill-current text-nord-3" fill="#4c566a" d="M231.52 135.97L226.24 132.84 220.25 136.38 225.5 139.5 231.52 135.97z" />
  <path className="fill-current text-nord-3" fill="#4c566a" d="M224.04 140.38L218.76 137.25 212.77 140.78 218.03 143.91 224.04 140.38z" />
  <path className="fill-current text-nord-3" fill="#4c566a" d="M216.56 144.78L211.29 141.65 205.29 145.19 210.55 148.31 216.56 144.78z" />
  <path className="fill-current text-nord-3" fill="#4c566a" d="M209.08 149.19L203.81 146.05 197.81 149.59 203.07 152.71 209.08 149.19z" />
  <path className="fill-current text-nord-3" fill="#4c566a" d="M201.61 153.59L196.33 150.46 190.34 154 195.6 157.12 201.61 153.59z" />
  <path className="fill-current text-nord-3" fill="#4c566a" d="M194.13 157.99L188.85 154.86 182.86 158.4 188.12 161.52 194.13 157.99z" />
  <path className="fill-current text-nord-3" fill="#4c566a" d="M181.38 159.27L175.38 162.81 180.64 165.93 186.65 162.4 181.38 159.27z" />
  <path className="fill-current text-nord-3" fill="#4c566a" d="M277.19 117.12L283.2 113.59 277.93 110.46 271.94 114 277.19 117.12z" />
  <path className="fill-current text-nord-3" fill="#4c566a" d="M264.46 118.4L269.72 121.52 275.73 118 270.45 114.86 264.46 118.4z" />
  <path className="fill-current text-nord-3" fill="#4c566a" d="M256.98 122.81L262.24 125.93 268.25 122.4 262.98 119.27 256.98 122.81z" />
  <path className="fill-current text-nord-3" fill="#4c566a" d="M249.5 127.21L254.76 130.33 260.77 126.81 255.5 123.67 249.5 127.21z" />
  <path className="fill-current text-nord-3" fill="#4c566a" d="M242.03 131.62L247.28 134.74 253.29 131.21 248.02 128.08 242.03 131.62z" />
  <path className="fill-current text-nord-3" fill="#4c566a" d="M234.55 136.02L239.81 139.14 245.82 135.61 240.54 132.48 234.55 136.02z" />
  <path className="fill-current text-nord-3" fill="#4c566a" d="M227.07 140.42L232.33 143.55 238.34 140.02 233.07 136.89 227.07 140.42z" />
  <path className="fill-current text-nord-3" fill="#4c566a" d="M219.59 144.83L224.85 147.95 230.86 144.42 225.59 141.29 219.59 144.83z" />
  <path className="fill-current text-nord-3" fill="#4c566a" d="M212.12 149.23L217.38 152.35 223.39 148.83 218.11 145.7 212.12 149.23z" />
  <path className="fill-current text-nord-3" fill="#4c566a" d="M204.64 153.64L209.9 156.76 215.91 153.23 210.63 150.1 204.64 153.64z" />
  <path className="fill-current text-nord-3" fill="#4c566a" d="M197.16 158.04L202.42 161.16 208.43 157.63 203.16 154.5 197.16 158.04z" />
  <path className="fill-current text-nord-3" fill="#4c566a" d="M189.69 162.45L194.94 165.57 200.95 162.04 195.68 158.91 189.69 162.45z" />
  <path className="fill-current text-nord-3" fill="#4c566a" d="M188.2 163.31L182.21 166.85 187.47 169.97 193.48 166.44 188.2 163.31z" />
  <path className="fill-current text-nord-3" fill="#4c566a" d="M284.02 121.17L290.03 117.64 284.76 114.51 278.76 118.04 284.02 121.17z" />
  <path className="fill-current text-nord-3" fill="#4c566a" d="M271.28 122.45L276.54 125.57 282.55 122.04 277.28 118.91 271.28 122.45z" />
  <path className="fill-current text-nord-3" fill="#4c566a" d="M275.07 126.45L269.8 123.31 263.81 126.85 269.06 129.97 275.07 126.45z" />
  <path className="fill-current text-nord-3" fill="#4c566a" d="M256.33 131.26L261.59 134.38 267.6 130.85 262.32 127.72 256.33 131.26z" />
  <path className="fill-current text-nord-3" fill="#4c566a" d="M248.85 135.66L254.11 138.78 260.12 135.25 254.85 132.12 248.85 135.66z" />
  <path className="fill-current text-nord-3" fill="#4c566a" d="M241.37 140.07L246.63 143.19 252.64 139.66 247.37 136.53 241.37 140.07z" />
  <path className="fill-current text-nord-3" fill="#4c566a" d="M233.9 144.47L239.16 147.59 245.16 144.06 239.89 140.93 233.9 144.47z" />
  <path className="fill-current text-nord-3" fill="#4c566a" d="M226.42 148.87L231.68 152 237.69 148.47 232.41 145.34 226.42 148.87z" />
  <path className="fill-current text-nord-3" fill="#4c566a" d="M218.94 153.28L224.2 156.4 230.21 152.87 224.94 149.74 218.94 153.28z" />
  <path className="fill-current text-nord-3" fill="#4c566a" d="M211.47 157.68L216.72 160.8 222.73 157.28 217.46 154.15 211.47 157.68z" />
  <path className="fill-current text-nord-3" fill="#4c566a" d="M203.99 162.09L209.25 165.21 215.26 161.68 209.98 158.55 203.99 162.09z" />
  <path className="fill-current text-nord-3" fill="#4c566a" d="M207.78 166.09L202.5 162.95 196.51 166.49 201.77 169.61 207.78 166.09z" />
  <path className="fill-current text-nord-3" fill="#4c566a" d="M195.03 167.36L189.03 170.9 194.29 174.02 200.3 170.49 195.03 167.36z" />
  <path className="fill-current text-nord-3" fill="#4c566a" d="M290.84 125.21L296.85 121.68 291.58 118.55 285.59 122.09 290.84 125.21z" />
  <path className="fill-current text-nord-3" fill="#4c566a" d="M289.38 126.09L284.1 122.96 278.11 126.49 283.37 129.62 289.38 126.09z" />
  <path className="fill-current text-nord-3" fill="#4c566a" d="M281.9 130.49L276.63 127.36 270.63 130.9 275.89 134.02 281.9 130.49z" />
  <path className="fill-current text-nord-3" fill="#4c566a" d="M274.42 134.9L269.15 131.76 263.15 135.3 268.41 138.42 274.42 134.9z" />
  <path className="fill-current text-nord-3" fill="#4c566a" d="M266.94 139.3L261.67 136.17 255.68 139.71 260.94 142.83 266.94 139.3z" />
  <path className="fill-current text-nord-3" fill="#4c566a" d="M259.47 143.7L254.19 140.57 248.2 144.11 253.46 147.23 259.47 143.7z" />
  <path className="fill-current text-nord-3" fill="#4c566a" d="M251.99 148.11L246.72 144.98 240.72 148.51 245.98 151.64 251.99 148.11z" />
  <path className="fill-current text-nord-3" fill="#4c566a" d="M244.51 152.51L239.24 149.38 233.24 152.92 238.5 156.04 244.51 152.51z" />
  <path className="fill-current text-nord-3" fill="#4c566a" d="M237.04 156.92L231.76 153.79 225.77 157.32 231.03 160.45 237.04 156.92z" />
  <path className="fill-current text-nord-3" fill="#4c566a" d="M229.56 161.32L224.28 158.19 218.29 161.73 223.55 164.85 229.56 161.32z" />
  <path className="fill-current text-nord-3" fill="#4c566a" d="M222.08 165.73L216.81 162.59 210.81 166.13 216.07 169.25 222.08 165.73z" />
  <path className="fill-current text-nord-3" fill="#4c566a" d="M214.6 170.13L209.33 167 203.34 170.54 208.59 173.66 214.6 170.13z" />
  <path className="fill-current text-nord-3" fill="#4c566a" d="M201.85 171.4L195.86 174.94 201.12 178.06 207.13 174.53 201.85 171.4z" />
  <path className="fill-current text-nord-3" fill="#4c566a" d="M297.67 129.26L303.68 125.73 298.4 122.6 292.41 126.13 297.67 129.26z" />
  <path className="fill-current text-nord-3" fill="#4c566a" d="M296.2 130.13L290.93 127 284.93 130.54 290.19 133.66 296.2 130.13z" />
  <path className="fill-current text-nord-3" fill="#4c566a" d="M288.73 134.54L283.45 131.41 277.46 134.94 282.71 138.06 288.73 134.54z" />
  <path className="fill-current text-nord-3" fill="#4c566a" d="M281.25 138.94L275.97 135.81 269.98 139.35 275.24 142.47 281.25 138.94z" />
  <path className="fill-current text-nord-3" fill="#4c566a" d="M273.77 143.34L268.5 140.21 262.5 143.75 267.76 146.87 273.77 143.34z" />
  <path className="fill-current text-nord-3" fill="#4c566a" d="M266.29 147.75L261.02 144.62 255.03 148.16 260.28 151.28 266.29 147.75z" />
  <path className="fill-current text-nord-3" fill="#4c566a" d="M258.81 152.16L253.54 149.02 247.55 152.56 252.81 155.68 258.81 152.16z" />
  <path className="fill-current text-nord-3" fill="#4c566a" d="M251.34 156.56L246.06 153.43 240.07 156.97 245.33 160.09 251.34 156.56z" />
  <path className="fill-current text-nord-3" fill="#4c566a" d="M243.86 160.96L238.59 157.83 232.59 161.37 237.85 164.49 243.86 160.96z" />
  <path className="fill-current text-nord-3" fill="#4c566a" d="M236.38 165.37L231.11 162.24 225.12 165.77 230.37 168.9 236.38 165.37z" />
  <path className="fill-current text-nord-3" fill="#4c566a" d="M228.91 169.77L223.63 166.64 217.64 170.18 222.9 173.3 228.91 169.77z" />
  <path className="fill-current text-nord-3" fill="#4c566a" d="M221.43 174.18L216.15 171.04 210.16 174.58 215.42 177.71 221.43 174.18z" />
  <path className="fill-current text-nord-3" fill="#4c566a" d="M208.68 175.45L202.68 178.99 207.94 182.11 213.95 178.58 208.68 175.45z" />
  <path className="fill-current text-nord-3" fill="#4c566a" d="M305.23 126.64L299.24 130.18 304.49 133.3 310.5 129.77 305.23 126.64z" />
  <path className="fill-current text-nord-3" fill="#4c566a" d="M291.76 134.58L297.02 137.71 303.03 134.18 297.75 131.05 291.76 134.58z" />
  <path className="fill-current text-nord-3" fill="#4c566a" d="M284.28 138.99L289.54 142.11 295.55 138.58 290.27 135.45 284.28 138.99z" />
  <path className="fill-current text-nord-3" fill="#4c566a" d="M276.8 143.39L282.06 146.51 288.07 142.99 282.8 139.85 276.8 143.39z" />
  <path className="fill-current text-nord-3" fill="#4c566a" d="M269.33 147.8L274.58 150.92 280.6 147.39 275.32 144.26 269.33 147.8z" />
  <path className="fill-current text-nord-3" fill="#4c566a" d="M261.85 152.2L267.11 155.32 273.12 151.8 267.84 148.66 261.85 152.2z" />
  <path className="fill-current text-nord-3" fill="#4c566a" d="M260.37 153.07L252.89 157.47 252.89 157.47 251.42 158.34 245.41 161.88 245.41 161.88 242.36 163.68 237.94 166.28 237.93 166.28 233.21 169.07 224.46 174.22 229.72 177.35 238.87 171.96 243.21 169.41 243.2 169.41 247.75 166.73 250.69 165.01 250.68 165.01 256.59 161.53 258.16 160.6 258.16 160.6 265.64 156.2 260.37 153.07z" />
  <path className="fill-current text-nord-3" fill="#4c566a" d="M216.99 178.63L222.24 181.75 228.25 178.22 222.98 175.09 216.99 178.63z" />
  <path className="fill-current text-nord-3" fill="#4c566a" d="M209.51 183.03L214.77 186.16 220.78 182.63 215.5 179.5 209.51 183.03z" />
  <path className="fill-current text-nord-2" fill="#434c5e" d="M302.86 163.32l-18.81-11.14a1.58 1.58 0 00-1.6 0l-26.09 15.41a.73.73 0 000 1.25l18.55 10.95a1.87 1.87 0 001.91 0l26.05-15.39a.65.65 0 00-.01-1.08z" />
  <path className="fill-current text-nord-0 dark:text-nord-3" fill="#2e3440" d="M310.76 347.05c10.56.1 7.09-8.11 7.09-8.11 15.67-4.88 23.36-2.17 23.37-2.16 3.92 14.15 2.34 22.69 2.49 26.1.07 1.68-1.15 2.71-2.7 3.3-8.42 3.21-16.09 5.34-31.78 3.78-11.54-1.16-23.77-12.1-21-23.34 1.77-6.98 11.83.33 22.53.43z" />
  <path className="fill-current text-nord-4 dark:text-nord-10" fill="#d8dee9" d="M315.28 245.5c3.1-4.11 8.4-7.63 17.19-5.25l94.39 18.63-3.55 24.81s-14.46 19.5-39.76 12.1-41.73-19.5-41.73-19.5l3.18 68.45s-14.81 4.69-28-3.45c-2.21-1.36-4.28-67.36-4.94-84.31-.16-4.67.43-7.8 3.22-11.48z" />
  <path className="fill-current text-nord-0 dark:text-nord-3" fill="#2e3440" d="M265.46 366.85c11 .11 7.37-8.42 7.37-8.42 16.26-5.07 24.24-2.25 24.26-2.25 4.07 14.7 2.43 23.57 2.58 27.11.07 1.74-1.2 2.81-2.8 3.42-8.74 3.33-16.71 5.55-33 3.93-12-1.2-24.69-12.56-21.8-24.23 1.8-7.23 12.28.33 23.39.44z" />
  <path className="fill-current text-nord-2" fill="#434c5e" d="M372.72 339.63L453.73 291.71 453.73 303.37 372.71 351.17 372.72 339.63z" />
  <path className="fill-current text-nord-3" fill="#4c566a" d="M380.11 248.41L453.73 291.71 372.72 339.63 298.99 296.27 380.11 248.41z" />
  <path className="fill-current text-nord-1" fill="#3b4252" d="M298.99 296.27L372.72 339.63 372.71 351.17 298.99 307.52 298.99 296.27z" />
  <path className="fill-current text-nord-4 dark:text-nord-10" fill="#d8dee9" d="M270.16 261.41c3.22-4.27 8.72-7.92 17.84-5.45l98 19.35-3.68 25.75s-15 20.25-41.28 12.57-43.33-20.25-43.33-20.25l3.3 71.07s-15.37 4.88-29.05-3.58c-2.3-1.42-4.44-69.94-5.13-87.54-.19-4.85.43-8.07 3.33-11.92z" />
  <path className="fill-current text-nord-12" fill="#d08771" d="M347.71 109.18c1.63 16.84 13.77 29.4 27.12 28.06s22.86-16.1 21.23-32.94S382.3 74.9 369 76.25s-22.91 16.09-21.29 32.93zM327.76 148.44s-5.8 1.43-7.81 1.64-9.64 1.83-12.76.86 2.74-3.09 4.18-4.18 1.38-3.85-1.77-4.82-10.26-.52-14-1.06 3.74-12.22 9.87-13.3a25.43 25.43 0 0116.8 2.32c5.23 2.64 8.09 7.1 10.52 8z" />
  <path className="fill-current text-nord-1 dark:text-nord-2" fill="#3b4252" d="M327.1 132.54l39.69 10.18 2 25.81-46.86-16.43c-.93-9.14 5.17-19.56 5.17-19.56zM425 143.46s11 14.15 0 33.64c0 0-7.67 10.87-28.75.23z" />
  <path className="fill-current text-nord-0 dark:text-nord-1" fill="#2e3440" d="M392.46 126.92s-17.11-1.2-30.53 8.41a10.52 10.52 0 01-3.68 4.72c-2.69 1.83-16 7.29-16 7.29s5.87 80-.87 118.89c0 0 28.93 23.11 74.1 0 0 0 6.61-98.17 9.51-122.77.01 0-7.52-9.53-32.53-16.54z" />
  <path className="fill-current text-nord-2" fill="#434c5e" d="M399.99 258.91L481 210.99 453.73 291.83 372.71 339.63 399.99 258.91z" />
  <path className="fill-current text-nord-3" fill="#4c566a" d="M472.06 205.68L481 210.99 399.99 258.91 390.94 253.53 472.06 205.68z" />
  <path className="fill-current text-nord-1" fill="#3b4252" d="M390.94 253.53L399.99 258.91 372.71 339.63 363.57 334.24 390.94 253.53z" />
  <path className="fill-current text-nord-12" fill="#d08771" d="M274.4 183.85s-4.42-4.56-6.11-5.86-7.64-7-11-7.79 2.36 5.15 3.05 7-3.41-1.48-6.53-2.67-6.8-1-10.62.37c-7.67 2.79-7.29 18.49-1 16.63 10.31-3 14.95 5.33 21.1 7.09 4.27 1.22 6.06 1.14 8.73 1.63z" />
  <path className="fill-current text-nord-1 dark:text-nord-2" fill="#3b4252" d="M342.25 147.34l-33.5 45.43-34.82-10.52s-7.47 9.64-5.05 19.85l46.47 18.51 37.76-42.52s12.65-26.91-10.86-30.75z" />
  <path className="fill-current text-nord-2" fill="#434c5e" d="M167.49 189.9h-6.29v6.95h6.29a4.29 4.29 0 014.24 4.33v11.29a4.3 4.3 0 01-4.24 4.34h-9.23v6.94h9.23a11.17 11.17 0 0011-11.28v-11.29a11.17 11.17 0 00-11-11.28z" />
  <path className="fill-current text-nord-3" fill="#4c566a" d="M165.12 186.07v39.11c0 6.06-8.83 11-19.71 11s-19.72-4.91-19.72-11v-39.11z" />
  <path className="fill-current text-nord-1" fill="#3b4252" d="M125.69 186.07c0 6.05 8.83 11 19.72 11s19.71-4.92 19.71-11-8.83-11-19.71-11-19.72 4.94-19.72 11z" />
  <path className="fill-current text-nord-2" fill="#434c5e" d="M129.61 185.93c0 4.74 7.07 8.58 15.8 8.58s15.79-3.84 15.79-8.58-7.07-8.58-15.79-8.58-15.8 3.83-15.8 8.58z" />
  <ellipse className="fill-current text-nord-8 dark:text-nord-12" fill="#2e3440" cx="145.41" cy="188.74" rx="14.91" ry="5.77" />
  <path className="fill-current text-nord-2" fill="#434c5e" d="M152.86 196.18v39.09a21 21 0 009.29-4.38v-39.05a21 21 0 01-9.29 4.34z" />
  <path className="fill-current text-nord-2" fill="#434c5e" d="M361.69 135.18L370 102.18 362.05 102.18 357.51 120.96 350 119.56 354.77 128.21" />
  <path className="fill-current text-nord-0" fill="#2e3440" d="M361.72 62.38s-2.58 6.33 9.75 8 27.57 8 31.57 21.3c2.57 8.51-.4 17.64-4.58 25.07a46.78 46.78 0 01-4.9 7.3s-8.24 2.28-18.17-3.2a31.85 31.85 0 01-9.78-12.2s-7.34 3.13-9.63-3.13c-1.69-4.59-7-5.74-9.88-8.25 0 .04-16.65-27.8 15.62-34.89z" />
  <path className="fill-current text-nord-0 dark:text-nord-4" fill="#2e3440" d="M173 84.18L173 80.18 262 28.18 262 84.18 173 136.18" />
  <path className="fill-current text-nord-3" fill="#4c566a" d="M184.49 122.32H230.61V124.61999999999999H184.49z" transform="rotate(-30 110.09 115.358)" />
  <path className="fill-current text-nord-5 dark:text-nord-3" fill="#e5e9f0" d="M203.98 128.02H215.10999999999999V130.91H203.98z" transform="rotate(-30 112.084 121.353)" />
  <path className="fill-current text-nord-12" fill="#d08770" d="M186.56 136.57H203.53V139.35999999999999H186.56z" transform="rotate(-30 97.587 129.848)" />
  <path className="fill-current text-nord-5 dark:text-nord-3" fill="#e5e9f0" d="M215.98 121.02H227.10999999999999V123.91H215.98z" transform="rotate(-30 124.08 114.347)" />
  <path className="fill-current text-nord-5 dark:text-nord-3" fill="#e5e9f0" d="M227.68 113.14H242.41V115.8H227.68z" transform="rotate(-30 137.585 106.346)" />
  <path className="fill-current text-nord-9" fill="#81a1c1" d="M199.56 136.57H216.53V139.35999999999999H199.56z" transform="rotate(-30 110.586 129.852)" />
  <path className="fill-current text-nord-5 dark:text-nord-3" fill="#e5e9f0" d="M187.98 145.02H199.10999999999999V147.91H187.98z" transform="rotate(-30 96.09 138.347)" />
  <path className="fill-current text-nord-5 dark:text-nord-3" fill="#e5e9f0" d="M216.98 128.02H228.10999999999999V130.91H216.98z" transform="rotate(-30 125.083 121.356)" />
  <path className="fill-current text-nord-5 dark:text-nord-3" fill="#e5e9f0" d="M187.98 152.02H199.10999999999999V154.91H187.98z" transform="rotate(-30 96.094 145.348)" />
  <path className="fill-current text-nord-5 dark:text-nord-3" fill="#e5e9f0" d="M199.98 145.02H211.10999999999999V147.91H199.98z" transform="rotate(-30 108.086 138.362)" />
  <path className="fill-current text-nord-15" fill="#b48ead" d="M211.98 138.02H223.10999999999999V140.91H211.98z" transform="rotate(-30 120.083 131.356)" />
  <path className="fill-current text-nord-5 dark:text-nord-3" fill="#e5e9f0" d="M223.98 131.02H235.10999999999999V133.91H223.98z" transform="rotate(-30 132.08 124.35)" />
  <path className="fill-current text-nord-14" fill="#a3be8c" d="M186.98 159.02H198.10999999999999V161.91H186.98z" transform="rotate(-30 95.095 152.36)" />
  <path className="fill-current text-nord-5 dark:text-nord-3" fill="#e5e9f0" d="M198.98 152.02H210.10999999999999V154.91H198.98z" transform="rotate(-30 107.092 145.355)" />
  <path className="fill-current text-nord-5 dark:text-nord-3" fill="#e5e9f0" d="M210.98 145.02H222.10999999999999V147.91H210.98z" transform="rotate(-30 119.09 138.35)" />
  <path className="fill-current text-nord-13" fill="#ebcb8b" d="M222.56 136.57H239.53V139.35999999999999H222.56z" transform="rotate(-30 133.586 129.854)" />
  <path className="fill-current text-nord-5 dark:text-nord-3" fill="#e5e9f0" d="M187.98 165.02H199.10999999999999V167.91H187.98z" transform="rotate(-30 96.09 158.347)" />
  <path className="fill-current text-nord-11" fill="#bf616a" d="M198.48 157.29H215.33999999999997V160.39H198.48z" transform="rotate(-30 109.453 150.728)" />
  <path className="fill-current text-nord-5 dark:text-nord-3" fill="#e5e9f0" d="M214.98 149.02H226.10999999999999V151.91H214.98z" transform="rotate(-30 123.094 142.363)" />
  <path className="fill-current text-nord-3" fill="#4c566a" d="M228.79 107.07H239.92V109.19999999999999H228.79z" transform="rotate(-30 136.9 100.022)" />
</svg>